<?xml version="1.0" encoding="UTF-8"?>
<svg width="162px" height="142px" viewBox="0 0 162 142" version="1.1" xmlns="http://www.w3.org/2000/svg" xmlns:xlink="http://www.w3.org/1999/xlink">
    <g id="Page-4" stroke="none" stroke-width="1" fill="none" fill-rule="evenodd">
        <g id="Pestaña-centros" transform="translate(-717.000000, -971.000000)" fill-rule="nonzero" fill="#e9e9e9">
            <g id="Group-6" transform="translate(717.000000, 971.000000)">
                <path d="M156.9375,131.857143 L151.875,131.857143 L151.875,119.178572 C151.875,114.97721 148.475215,111.571429 144.28125,111.571429 L131.625,111.571429 L131.625,55.7857158 L121.5,55.7857158 L121.5,111.571429 L101.25,111.571429 L101.25,55.7857158 L91.125,55.7857158 L91.125,111.571429 L70.875,111.571429 L70.875,55.7857158 L60.75,55.7857158 L60.75,111.571429 L40.5,111.571429 L40.5,55.7857158 L30.375,55.7857158 L30.375,111.571429 L17.71875,111.571429 C13.5247852,111.571429 10.125,114.97721 10.125,119.178572 L10.125,131.857143 L5.0625,131.857143 C2.26641797,131.857143 0,134.127558 0,136.928572 L0,139.464286 C1.71202043e-16,140.864722 1.13327923,142 2.53125,142 L159.46875,142 C160.866721,142 162,140.864722 162,139.464286 L162,136.928572 C162,134.127558 159.733582,131.857143 156.9375,131.857143 Z M20.25,121.714286 L141.75,121.714286 L141.75,131.857143 L20.25,131.857143 L20.25,121.714286 Z M159.55323,32.9642876 L85.8027305,0.780685479 C82.685213,-0.260228493 79.314787,-0.260228493 76.1972695,0.780685479 L2.44676953,32.9642876 C0.973602435,33.5256419 -0.000125381031,34.9404347 0,36.519359 L0,39.3035732 C0,41.4040955 1.70005078,43.1071446 3.796875,43.1071446 L10.125,43.1071446 L10.125,46.9107159 C10.125,49.0112382 11.8250508,50.7142873 13.921875,50.7142873 L148.078125,50.7142873 C150.174949,50.7142873 151.875,49.0112382 151.875,46.9107159 L151.875,43.1071446 L158.203125,43.1071446 C160.299949,43.1071446 162,41.4040955 162,39.3035732 L162,36.519359 C162,34.9402429 161.026418,33.5256313 159.55323,32.9642876 Z M141.75,40.5714303 L20.25,40.5714303 L20.25,36.2588143 L79.7163398,10.3086317 C80.5579046,10.0877031 81.4420954,10.0877031 82.2836602,10.3086317 L141.75,36.2588143 L141.75,40.5714303 Z" id="Shape" style="mix-blend-mode: multiply;"></path>
            </g>
        </g>
    </g>
</svg>