<?xml version="1.0" encoding="utf-8"?>
<!-- Generator: Adobe Illustrator 24.1.2, SVG Export Plug-In . SVG Version: 6.00 Build 0)  -->
<svg version="1.1" id="Layer_1" xmlns="http://www.w3.org/2000/svg" xmlns:xlink="http://www.w3.org/1999/xlink" x="0px" y="0px"
	 viewBox="0 0 100 60" style="enable-background:new 0 0 100 60;" xml:space="preserve">
<path d="M100,42.02c0,4.63-3.76,8.39-8.39,8.39c-1.41,0-2.73-0.35-3.89-0.95c-2.58,2.22-5.93,3.57-9.61,3.57
	c-2.59,0-5.02-0.67-7.13-1.84c-3.14,2.43-7.08,3.88-11.37,3.88c-1.52,0-3-0.18-4.41-0.53c-4.18,2.43-9.04,3.82-14.21,3.82
	c-5.71,0-11.03-1.69-15.48-4.61c-2.13,0.85-4.46,1.32-6.89,1.32C8.34,55.07,0,46.73,0,36.45c0-9.13,6.57-16.72,15.23-18.31
	c4.48-9.74,14.33-16.5,25.76-16.5c10.93,0,20.41,6.18,25.14,15.23c0.37-0.05,0.76-0.08,1.15-0.08c4.1,0,7.47,3.09,7.93,7.06
	c0.94-0.19,1.91-0.29,2.9-0.29c6.5,0,12.03,4.22,13.98,10.08C96.5,33.89,100,37.54,100,42.02z"/>
</svg>
