<?xml version="1.0" encoding="utf-8"?>
<!-- Generator: Adobe Illustrator 24.1.3, SVG Export Plug-In . SVG Version: 6.00 Build 0)  -->
<svg version="1.1" id="Layer_1" xmlns="http://www.w3.org/2000/svg" xmlns:xlink="http://www.w3.org/1999/xlink" x="0px" y="0px"
	 viewBox="0 0 100 100" style="enable-background:new 0 0 100 100;" xml:space="preserve">
<style type="text/css">
	.st0{fill:#CCCCCC;}
</style>
<path class="st0" d="M100,50c0-27.61-22.39-50-50-50S0,22.39,0,50c0-1.8,0.29-3.53,0.82-5.15l43.81,36.02
	c-0.03,0.15-0.05,0.31-0.05,0.47v3.01c0,1.06,0.63,1.98,1.53,2.41v1.53v0.13v9.97c0,0.89,0.72,1.61,1.61,1.61s1.61-0.72,1.61-1.61
	v-7.78h1.32v7.78c0,0.89,0.72,1.61,1.61,1.61s1.61-0.72,1.61-1.61v-9.97v-0.13v-1.53c0.9-0.43,1.53-1.35,1.53-2.41v-3.01
	c0-0.17-0.02-0.33-0.05-0.48l43.76-36.14C99.69,46.38,100,48.15,100,50z M34.4,44.1c2.38-6.29,8.47-10.77,15.6-10.77
	s13.21,4.48,15.6,10.77c0.07,0.18,0.18,0.32,0.31,0.44L53.85,73.92c-0.13-2.03-1.8-3.64-3.85-3.64c-2.07,0-3.74,1.62-3.86,3.65
	L34.07,44.56C34.21,44.44,34.33,44.3,34.4,44.1z M48.32,78.66h-0.23l-0.67-1.62c0.69,0.62,1.59,1,2.58,1c0.99,0,1.89-0.38,2.57-1
	l-0.66,1.62h-0.23H48.32z M45.02,79.9L1.18,43.86c2.45-6.16,8.45-10.53,15.49-10.53c7.12,0,13.21,4.48,15.59,10.77
	c0.15,0.4,0.48,0.63,0.83,0.71l13.92,33.88C46.18,78.77,45.45,79.22,45.02,79.9z M54.97,79.88c-0.44-0.67-1.16-1.12-1.99-1.19
	l13.89-33.87c0.37-0.06,0.71-0.29,0.87-0.71c2.38-6.29,8.46-10.77,15.59-10.77c6.98,0,12.95,4.3,15.43,10.39L54.97,79.88z"/>
</svg>
