<?xml version="1.0" encoding="utf-8"?>
<!-- Generator: Adobe Illustrator 24.1.3, SVG Export Plug-In . SVG Version: 6.00 Build 0)  -->
<svg version="1.1" id="Layer_1" xmlns="http://www.w3.org/2000/svg" xmlns:xlink="http://www.w3.org/1999/xlink" x="0px" y="0px"
	 viewBox="0 0 100 60" style="enable-background:new 0 0 100 60;" xml:space="preserve">
<style type="text/css">
	.st0{fill:#FBB03B;}
</style>
<path class="st0" d="M100,27.07c-1.12,0.03-2.45,0.05-3.98,0.04c0.09-0.69,0.15-1.4,0.15-2.13c0-5.36-2.65-9.71-5.92-9.71
	c-3.27,0-5.92,4.35-5.92,9.71c0,0.54,0.03,1.07,0.09,1.59c-3.09-0.28-5.44-0.61-9.38-1.02c-3.81-0.4-9.33-0.89-16.14-1.22
	c-0.29,0.3-1.39,1.37-3.15,1.52c-1.25,0.11-2.21-0.3-2.64-0.51c-0.27-0.64-0.54-1.29-0.81-1.93c-5.01-0.02-10.02-0.05-15.02-0.07
	v-6.62c2.69-0.57,5.2-1.67,7.16-3.41c1.62-1.43,2.55-3.02,3.04-4.02c-0.33-0.06-1.13-0.21-2.13-0.4C30.7,6.08,25.06,3.57,19.39,6.58
	c-0.24,0.13-0.7,0.38-1.25,0.76c-0.36,1.04-0.54,2.24-0.16,3.42c0.48,1.53,1.85,2.88,3.75,3.94v8.57c-4.5-0.02-9-0.04-13.5-0.06
	c-0.71,0-2.71,0.1-4.67,1.32c-0.25,0.16-1.4,0.9-2.32,2.13c0.37-4.49,0.75-10.35,0.26-10.99c-0.32-0.42-0.62-0.41-0.62-0.41
	c0,0-0.33,0.01-0.66,0.51c-0.5,0.77,0,7.49,0.38,11.91c-0.3,0.6-0.53,1.28-0.59,2.03c0,0-0.12,1.48,0.66,3.15
	c-0.4,4.51-0.99,12.22-0.43,12.96c0.32,0.42,0.62,0.41,0.62,0.41c0,0,0.33-0.01,0.66-0.51c0.5-0.78-0.01-7.63-0.39-12.04
	c2.6,4.02,9.65,6.04,16.43,7.04l2.03,3.98c-1.52,0.97-2.53,2.67-2.53,4.61c0,3.03,2.45,5.48,5.48,5.48s5.48-2.45,5.48-5.48
	c0-1.65-0.73-3.13-1.89-4.13l2.49-3.52c2.41,0.07,3.97,0.04,3.97,0.04c12.22-0.27,30.64-1.97,54.22-8.81
	c0.97,1.13,2.15,1.81,3.44,1.81c2.44,0,4.53-2.42,5.44-5.86c0.69-0.09,1.5-0.26,2.39-0.63C98.88,27.84,99.52,27.43,100,27.07z
	 M34.22,23.33c-0.11,0-0.21,0-0.32,0l-3.94-2.96l4.25-3.22c0,0,0.01,0,0.01,0V23.33z M33.4,17.19l-3.85,2.87l-4.77-3.58v-0.46
	C27.36,16.87,30.38,17.31,33.4,17.19z M24.78,16.94l4.43,3.37l-3.99,2.97c-0.15,0-0.29,0-0.44,0V16.94z M25.25,44.54
	c-0.8-0.46-1.72-0.72-2.71-0.72c-0.7,0-1.37,0.14-1.99,0.38l-1.68-3.31c3.1,0.4,6.08,0.61,8.47,0.71L25.25,44.54z M26.11,23.29
	l3.51-2.66l3.55,2.7C30.82,23.31,28.46,23.3,26.11,23.29z"/>
</svg>
