<?xml version="1.0" encoding="utf-8"?>
<!-- Generator: Adobe Illustrator 24.1.2, SVG Export Plug-In . SVG Version: 6.00 Build 0)  -->
<svg version="1.1" id="Layer_1" xmlns="http://www.w3.org/2000/svg" xmlns:xlink="http://www.w3.org/1999/xlink" x="0px" y="0px"
	 viewBox="0 0 100 60" style="enable-background:new 0 0 100 60;" xml:space="preserve">
<path d="M100,35.05c0,10.88-8.82,19.7-19.7,19.7c-1.82,0-3.59-0.25-5.27-0.71c-4.21,2.54-9.15,4-14.43,4
	c-6.68,0-12.82-2.34-17.64-6.24c-3.02,1.88-6.58,2.96-10.39,2.96c-4.4,0-8.47-1.45-11.75-3.89c-1.88,0.88-3.97,1.36-6.18,1.36
	C6.56,52.22,0,45.66,0,37.58s6.56-14.65,14.65-14.65c0.77,0,1.53,0.06,2.27,0.17c3.6-4.71,9.28-7.75,15.66-7.75
	c1.33,0,2.64,0.13,3.9,0.38C41.35,7.49,50.33,1.97,60.61,1.97c10.33,0,19.35,5.59,24.22,13.91C93.52,17.92,100,25.73,100,35.05z"/>
</svg>
